<svg xmlns="http://www.w3.org/2000/svg" xmlns:xlink="http://www.w3.org/1999/xlink" viewBox="0 0 32.71 26.94"><defs><style>.cls-1{isolation:isolate;}.cls-2{clip-path:url(#clip-path);}.cls-3{fill:none;}.cls-4{clip-path:url(#clip-path-2);}.cls-11,.cls-14,.cls-5,.cls-8{opacity:0.7;}.cls-5{fill:url(#linear-gradient);}.cls-6{clip-path:url(#clip-path-3);}.cls-7{clip-path:url(#clip-path-4);}.cls-8{fill:url(#linear-gradient-2);}.cls-9{clip-path:url(#clip-path-5);}.cls-10{clip-path:url(#clip-path-6);}.cls-11{fill:url(#linear-gradient-3);}.cls-12{clip-path:url(#clip-path-7);}.cls-13{clip-path:url(#clip-path-8);}.cls-14{fill:url(#linear-gradient-4);}.cls-15{mask:url(#mask);}.cls-16{clip-path:url(#clip-path-9);}.cls-17{clip-path:url(#clip-path-10);}.cls-18{fill:url(#linear-gradient-5);}.cls-19{mask:url(#mask-2);}.cls-20{clip-path:url(#clip-path-11);}.cls-21{clip-path:url(#clip-path-12);}.cls-22{fill:url(#linear-gradient-6);}.cls-23{mask:url(#mask-3);}.cls-24{clip-path:url(#clip-path-13);}.cls-25{clip-path:url(#clip-path-14);}.cls-26{fill:url(#linear-gradient-7);}.cls-27{mask:url(#mask-4);}.cls-28{clip-path:url(#clip-path-15);}.cls-29{clip-path:url(#clip-path-16);}.cls-30{fill:url(#linear-gradient-8);}</style><clipPath id="clip-path"><rect class="cls-3" y="0.23" width="27.17" height="26.71"/></clipPath><clipPath id="clip-path-2"><polygon class="cls-3" points="41.45 11.22 34.16 25.7 18.15 26.52 9.44 12.87 16.73 -1.6 32.74 -2.43 41.45 11.22"/></clipPath><linearGradient id="linear-gradient" x1="126.15" y1="387.16" x2="126.49" y2="387.16" gradientTransform="matrix(95.95, 0, 0, -95.95, -12094.54, 37159.29)" gradientUnits="userSpaceOnUse"><stop offset="0" stop-color="#06abb4"/><stop offset="0.16" stop-color="#08a5b1"/><stop offset="0.37" stop-color="#0d95aa"/><stop offset="0.61" stop-color="#157a9e"/><stop offset="0.86" stop-color="#20548d"/><stop offset="1" stop-color="#273d83"/></linearGradient><clipPath id="clip-path-3"><rect class="cls-3" x="1.69" width="27.18" height="26.71"/></clipPath><clipPath id="clip-path-4"><polygon class="cls-3" points="43.15 10.99 35.85 25.47 19.84 26.29 11.13 12.64 18.43 -1.83 34.44 -2.66 43.15 10.99"/></clipPath><linearGradient id="linear-gradient-2" x1="126.12" y1="387.16" x2="126.45" y2="387.16" gradientTransform="matrix(95.95, 0, 0, -95.95, -12089.77, 37159.49)" xlink:href="#linear-gradient"/><clipPath id="clip-path-5"><rect class="cls-3" x="3.62" width="27.18" height="26.71"/></clipPath><clipPath id="clip-path-6"><polygon class="cls-3" points="45.08 10.99 37.78 25.47 21.77 26.29 13.06 12.64 20.36 -1.83 36.37 -2.66 45.08 10.99"/></clipPath><linearGradient id="linear-gradient-3" x1="126.08" y1="387.16" x2="126.41" y2="387.16" gradientTransform="matrix(95.95, 0, 0, -95.95, -12084, 37159.56)" xlink:href="#linear-gradient"/><clipPath id="clip-path-7"><rect class="cls-3" x="5.54" width="27.17" height="26.71"/></clipPath><clipPath id="clip-path-8"><polygon class="cls-3" points="46.99 10.99 39.69 25.47 23.69 26.29 14.97 12.64 22.27 -1.83 38.28 -2.66 46.99 10.99"/></clipPath><linearGradient id="linear-gradient-4" x1="126.03" y1="387.16" x2="126.37" y2="387.16" gradientTransform="matrix(95.94, 0, 0, -95.94, -12077.3, 37157.25)" xlink:href="#linear-gradient"/><mask id="mask" x="0" y="-2.43" width="41.45" height="29.37" maskUnits="userSpaceOnUse"><rect y="0.23" width="27.17" height="26.71"/><g class="cls-1"><g class="cls-2"><g class="cls-4"><rect class="cls-5" x="9.44" y="-2.43" width="32.02" height="28.95"/></g></g></g></mask><clipPath id="clip-path-9"><rect class="cls-3" y="0.23" width="27.17" height="26.71"/></clipPath><clipPath id="clip-path-10"><path class="cls-3" d="M27.17,13.58A13.47,13.47,0,0,1,13.59,26.94,13.47,13.47,0,0,1,0,13.58,13.47,13.47,0,0,1,13.59.23,13.47,13.47,0,0,1,27.17,13.58"/></clipPath><linearGradient id="linear-gradient-5" x1="125.98" y1="387.69" x2="126.31" y2="387.69" gradientTransform="matrix(81.43, 0, 0, -81.43, -10258.17, 31582.47)" gradientUnits="userSpaceOnUse"><stop offset="0" stop-color="#06abb4"/><stop offset="0.16" stop-color="#08a5b1"/><stop offset="0.37" stop-color="#0d95aa"/><stop offset="0.61" stop-color="#157a9e"/><stop offset="0.86" stop-color="#20558e"/><stop offset="1" stop-color="#273d83"/></linearGradient><mask id="mask-2" x="1.69" y="-2.66" width="41.46" height="29.37" maskUnits="userSpaceOnUse"><rect x="1.69" width="27.18" height="26.71"/><g class="cls-1"><g class="cls-6"><g class="cls-7"><rect class="cls-8" x="11.13" y="-2.66" width="32.02" height="28.95"/></g></g></g></mask><clipPath id="clip-path-11"><rect class="cls-3" x="1.69" width="27.18" height="26.71"/></clipPath><clipPath id="clip-path-12"><path class="cls-3" d="M28.87,13.35A13.47,13.47,0,0,1,15.28,26.71,13.47,13.47,0,0,1,1.69,13.35,13.47,13.47,0,0,1,15.28,0,13.47,13.47,0,0,1,28.87,13.35"/></clipPath><linearGradient id="linear-gradient-6" x1="125.94" y1="387.68" x2="126.27" y2="387.68" gradientTransform="matrix(81.43, 0, 0, -81.43, -10253.79, 31583.45)" xlink:href="#linear-gradient-5"/><mask id="mask-3" x="3.62" y="-2.66" width="41.46" height="29.37" maskUnits="userSpaceOnUse"><rect x="3.62" width="27.18" height="26.71"/><g class="cls-1"><g class="cls-9"><g class="cls-10"><rect class="cls-11" x="13.06" y="-2.66" width="32.02" height="28.95"/></g></g></g></mask><clipPath id="clip-path-13"><rect class="cls-3" x="3.62" width="27.18" height="26.71"/></clipPath><clipPath id="clip-path-14"><path class="cls-3" d="M30.8,13.35A13.47,13.47,0,0,1,17.21,26.71,13.47,13.47,0,0,1,3.62,13.35,13.47,13.47,0,0,1,17.21,0,13.47,13.47,0,0,1,30.8,13.35"/></clipPath><linearGradient id="linear-gradient-7" x1="125.89" y1="387.68" x2="126.23" y2="387.68" gradientTransform="matrix(81.43, 0, 0, -81.43, -10248.23, 31583.93)" xlink:href="#linear-gradient-5"/><mask id="mask-4" x="5.54" y="-2.66" width="41.45" height="29.37" maskUnits="userSpaceOnUse"><rect x="5.54" width="27.17" height="26.71"/><g class="cls-1"><g class="cls-12"><g class="cls-13"><rect class="cls-14" x="14.97" y="-2.66" width="32.02" height="28.95"/></g></g></g></mask><clipPath id="clip-path-15"><rect class="cls-3" x="5.54" width="27.17" height="26.71"/></clipPath><clipPath id="clip-path-16"><path class="cls-3" d="M32.71,13.35A13.47,13.47,0,0,1,19.13,26.71,13.47,13.47,0,0,1,5.54,13.35,13.47,13.47,0,0,1,19.13,0,13.47,13.47,0,0,1,32.71,13.35"/></clipPath><linearGradient id="linear-gradient-8" x1="125.84" y1="387.68" x2="126.17" y2="387.68" gradientTransform="matrix(81.43, 0, 0, -81.43, -10241.46, 31581.7)" xlink:href="#linear-gradient-5"/></defs><title>Asset 1</title><g id="Layer_2" data-name="Layer 2"><g id="Layer_1-2" data-name="Layer 1"><g class="cls-15"><g class="cls-16"><g class="cls-17"><rect class="cls-18" y="0.23" width="27.17" height="26.71"/></g></g></g><g class="cls-19"><g class="cls-20"><g class="cls-21"><rect class="cls-22" x="1.69" width="27.18" height="26.71"/></g></g></g><g class="cls-23"><g class="cls-24"><g class="cls-25"><rect class="cls-26" x="3.62" width="27.18" height="26.71"/></g></g></g><g class="cls-27"><g class="cls-28"><g class="cls-29"><rect class="cls-30" x="5.54" width="27.17" height="26.71"/></g></g></g></g></g></svg>